<?xml version="1.0" encoding="UTF-8"?><svg id="Layer_1" xmlns="http://www.w3.org/2000/svg" viewBox="0 0 512 512"><defs><style>.cls-1{fill:#09468b;}</style></defs><path id="path22" class="cls-1" d="M383.87,241.55l-.39,1.5s4.93-.08,6.92-.08c4.55,0,7.32,.41,7.63,3.18,.27,1.87-.6,3.66-1.1,5.42-.48,1.71-.92,3.35-1.39,5.04-.5,1.78-1.04,3.35-1.99,4.55-1.08,1.36-2.47,2.27-3.88,2.61-1.95,.48-9.93,.19-12.15,.19-.25,.63-.4,1.35-.6,2.03,6.47,.33,12.7-.1,19.32,.1,2.15,.07,4.28,.29,6.17-.1,2.89-.59,4.98-2.58,5.88-5.23,.89-2.61,1.69-5.65,2.49-8.42,.44-1.52,.72-2.95,1.39-4.16,.64-1.16,1.5-2.06,2.59-2.91,2.01-1.55,5.27-2.86,8.37-1.35,1.53,.74,2.41,1.97,2.39,4.26-.02,1.97-.68,3.59-1.2,5.42-1.54,5.48-2.9,10.13-4.38,15.5-.49,1.76-.86,3.65-1.49,5.13-1.23,2.89-3.93,5.25-7.47,5.81-2.97,.47-6.34,.1-9.46,.1h-28.49s-.49,1.4-.7,2.13c12.5,.18,25.39,.1,37.55,.1,3.31,0,6.38,.09,9.26-.19,8.26-.81,15.58-3.12,21.61-6.39,10.04-5.43,17.92-13.02,23.7-22.76,3.33-5.61,8.9-9.89,18.06-9.89,.26-.7,.4-1,.61-1.59h-99.26Z"/><path id="path26" class="cls-1" d="M153.6,229.01h11.55c-5.05,17.76-9.95,35.65-15.04,53.36h-11.45c4.87-17.89,9.9-35.63,14.94-53.36"/><path id="path30" class="cls-1" d="M28.5,282.37v-.29c4.05-13.82,7.76-27.97,11.85-41.74h38.94c2.31,0,4.27,.02,5.98,.48,4.88,1.33,8.1,5.86,6.77,11.82-.74,3.31-1.91,6.94-2.79,9.98-1.45,5.02-2.81,9.96-4.18,14.82-.47,1.66-.7,3.4-1.5,4.94-3.75-.06-7.77,.13-11.35-.1,2.1-7.8,4.87-17.39,7.17-25.47,.4-1.38,.8-2.82,.7-3.97-.33-3.81-4.72-3.32-8.97-3.29-2.72,9.56-5.44,19.29-8.07,28.76-.38,1.36-.7,2.77-1.29,4.07-3.75-.06-7.77,.13-11.36-.1,2.9-11.03,6.16-21.72,9.07-32.74h-10.26c-3.02,11.01-6.04,22.02-9.26,32.83-3.42,0-7.7,0-11.45,0"/><path id="path34" class="cls-1" d="M103.6,240.34h17.53c6.35,0,11.41-.36,15.14,2.23,2.21,1.53,3.91,4.17,3.98,7.75,.06,2.91-.92,5.7-1.69,8.43-2.21,7.81-4.44,16.09-6.67,23.63h-18.53c-5.9,0-13.37,.76-17.33-1.26-2.24-1.14-4.01-3.42-4.28-6.39-.37-4.1,1.17-7.79,2.89-10.36,1.78-2.68,4.25-4.7,7.37-6,6.7-2.81,16.38-.87,25.4-1.45,.71-1.56,1.33-4.08,.5-5.72-1.46-2.87-7.76-2.03-12.35-2.03h-14.44c.76-3,1.57-5.97,2.49-8.81m6.27,25.38c-3.51,.26-5.62,2.26-5.48,6.1,.53,1.21,1.84,1.64,3.39,1.74,4.39,.31,10.44-.23,15.04,0,.74-2.61,1.47-5.22,2.19-7.84-4.63,.26-10.61-.34-15.14,0"/><path id="path38" class="cls-1" d="M170.23,240.34h18.13c3.26,0,6.29-.16,8.86,.19,6.08,.83,10.43,4.94,9.56,11.91-.43,3.45-1.82,7.01-2.69,10.07-1.93,6.82-3.57,13.39-5.58,19.85h-19.12c-6.2,0-13.48,.7-17.33-1.65-1.98-1.21-3.46-3.35-3.68-6.2-.33-4.09,1.29-7.57,2.99-10.17,1.75-2.67,4.18-4.7,7.27-6,6.71-2.82,16.51-.87,25.4-1.45,.73-1.53,1.32-4.1,.5-5.72-1.46-2.87-7.76-2.03-12.35-2.03h-14.44c.78-2.98,1.57-5.96,2.49-8.81m6.18,25.38c-.87,.07-2.15,.37-2.89,.78-1.45,.8-3.09,3.58-2.39,5.52,.35,.95,1.81,1.45,3.19,1.55,4.84,.36,10.33-.27,15.14,0,.76-2.58,1.5-5.2,2.19-7.84-4.86,.32-10.24-.43-15.24,0"/><path id="path42" class="cls-1" d="M216.85,240.34h11.45c-1.81,6.84-4.28,15.2-6.37,22.86-.68,2.47-2.36,6.29-.9,8.43,1.16,1.68,3.97,1.45,6.97,1.45s5.94,0,8.27,0c3.21-10.8,6.17-21.83,9.26-32.74h11.55c-4.15,14.92-8.52,30.52-12.65,45.13-1.07,3.78-2.82,6.67-5.48,9.1-2.55,2.34-5.67,4.35-9.26,5.33-3.95,1.07-9.07,.58-14.14,.58h-14.54c.66-3.07,1.61-5.86,2.39-8.81h10.96c3.86,0,7.8,.24,10.95,0,3.04-.23,5.49-1.86,6.67-3.87,.88-1.49,1.1-3.44,1.69-5.42-9.32-.25-20.46,1.47-24.2-4.36-.64-.99-1.17-2.44-1.3-3.97-.24-3.07,.81-6.13,1.59-8.91,2.26-8.04,4.77-16.68,6.87-24.5,.09-.08,.06-.26,.2-.29"/><path id="path46" class="cls-1" d="M304.4,240.34c-.85,2.92-1.63,5.91-2.49,8.81h-20.72c-2.45,0-4.71-.12-6.27,.58-1.89,.85-3.07,2.89-2.89,5.42,.71,1.62,2.69,1.74,4.58,1.74h6.37c4.31,0,8.64-.2,11.55,1.16,2.87,1.34,4.82,4.27,4.48,8.81-.3,4.06-2.44,8.04-4.98,10.56-2.69,2.67-6.03,4.39-10.86,4.84-4.95,.46-10.4,.1-15.74,.1s-10.57,0-15.64,0c.55-2.79,1.59-5.95,2.39-8.81h23.21c2.75,0,5.02,.04,6.67-.97,1.26-.77,2.88-3.13,2.19-5.23-.8-2.44-7.46-1.64-10.86-1.64-4.31,0-8.53,.15-11.36-1.16-3.14-1.46-5.06-4.06-4.68-8.81,.18-2.32,.95-4.3,1.79-6.01,2.52-5.13,7.49-8.95,14.64-9.39,4.77-.3,9.6,0,14.34,0h14.24Z"/><path id="path50" class="cls-1" d="M312.07,240.34h11.45c-3.82,14.08-7.77,28.02-11.75,41.94-3.14,.22-8.06,.03-11.36,.1-.23-.38,0-.89,.1-1.26,3.72-13.26,7.68-27.1,11.45-40.48,0-.14-.02-.27,.1-.29"/><path id="path54" class="cls-1" d="M331.49,240.34h23.51c7.41,0,12.99,2.84,13.15,9.98,.07,2.88-.94,5.71-1.69,8.43-2.18,7.86-4.4,15.8-6.67,23.53-5.96,.18-12.34,.1-18.73,.1-6,0-13.35,.76-17.33-1.36-1.44-.77-2.75-2.15-3.39-3.58-1.71-3.85-.27-8.36,1.29-11.43,1.64-3.23,4.16-5.69,7.07-7.17,7.05-3.59,17.65-1.26,26.59-1.94,.7-1.59,1.31-4.07,.5-5.72-1.42-2.88-7.8-2.03-12.35-2.03h-14.44c.65-2.95,1.6-5.61,2.29-8.52,.08-.08,.06-.26,.2-.29m6.17,25.38c-.86,.07-2.14,.37-2.89,.78-1.55,.85-3.19,3.79-2.39,5.62,.4,.92,1.88,1.35,3.29,1.45,4.81,.33,10.26-.25,15.04,0,.7-2.64,1.48-5.21,2.19-7.84-4.87,.33-10.21-.43-15.24,0"/><path id="path58" class="cls-1" d="M294.24,286.44c-1.93,7.91-4.54,15.99-6.57,24.12h-3.48c2.26-7.94,4.49-15.9,6.67-23.92,.76-.42,2.3-.09,3.39-.19"/><path id="path62" class="cls-1" d="M249.62,291.67h7.67c3.93,0,7.76-.5,8.67,2.23,.65,1.96-.39,4-.9,5.81-.98,3.48-1.98,7.37-2.99,10.85-3.93-.21-8.56,.27-12.45,0-2.59-.18-4.48-1.49-4.58-4.07-.1-2.33,1.36-4.71,2.79-5.81,3.13-2.43,8.78-1.29,13.94-1.55,.3-1.12,1.14-2.44,.7-3.68-.56-1.55-3.96-1.07-6.28-1.07h-7.37c.22-.95,.42-1.92,.8-2.71m.9,10.75c-.97,.57-2.24,2.18-1.89,3.87,.57,2.83,7.49,1.04,10.76,1.55,.47-1.47,.88-3.2,1.3-4.65,.13-.46,.54-1.03,.2-1.45-2.86,.53-8.16-.62-10.36,.68"/><path id="path66" class="cls-1" d="M273.92,291.67c-1.62,6.39-3.49,12.55-5.18,18.89h-3.39c1.71-6.34,3.47-12.64,5.28-18.89h3.29Z"/><path id="path70" class="cls-1" d="M275.42,310.65h-3.39c.73-3,1.88-6.87,2.89-10.56,1-3.66,1.9-7.03,5.38-8.13,1.83-.58,4.08-.16,6.57-.29-.21,.96-.41,1.92-.8,2.71-1.46,.05-2.59-.11-3.68,.1-2.9,.56-3.4,3.2-4.18,5.91-.93,3.21-2.09,7.66-2.79,10.26"/><path id="path74" class="cls-1" d="M299.52,291.67c-1.78,6.27-3.52,12.59-5.28,18.89h-3.39c1.72-6.2,3.44-12.41,5.18-18.6,0-.17,.07-.25,.2-.29h3.29Z"/><path id="path78" class="cls-1" d="M302.81,291.67c6.22,.63,15.89-2.26,15.54,4.55-.06,1.21-.56,2.45-.9,3.68-.94,3.4-2.04,7.18-2.89,10.65h-3.48c.76-2.93,2.02-7.22,2.99-10.65,.46-1.63,1.18-3.64,.2-4.75-1.48-1.66-5.85-.34-8.77-.77-1.66,5.26-3.07,10.77-4.58,16.17h-3.38c1.72-6.34,3.45-12.65,5.28-18.89"/><path id="path82" class="cls-1" d="M338.56,291.67c-.29,.88-.46,1.88-.8,2.71-2.74,.17-5.26-.23-7.57,0-3.37,.33-5.15,2.63-6.28,5.13,3.78,.22,8,.03,11.95,.1-.18,.93-.49,1.72-.7,2.61h-11.95c-.47,1.02-.6,2.46-.3,3.49,.96,3.31,7.17,1.79,10.96,2.13,.14,.84-.46,1.81-.6,2.71-5.64-.2-11.3,1.02-13.35-2.52-2.51-4.35,.81-11.16,3.79-13.75,1.54-1.35,3.71-2.43,5.78-2.61,3.05-.28,5.68,.2,9.06,0"/><path id="path86" class="cls-1" d="M358.09,291.77c-.32,.85-.5,1.84-.8,2.71-3.51,.49-9.19-.82-11.85,.39-1.12,.51-2.7,2.28-1.89,3.87,.87,1.71,7.74,.41,9.86,1.35,2.97,1.33,2.63,5.51,.9,7.84-.98,1.32-2.74,2.41-4.78,2.62-4.08,.41-9.24-.31-13.65,0,.26-.91,.44-1.9,.8-2.71,4.06-.5,12.49,1.21,14.64-1.45,.59-.73,.96-2.15,.5-3.1-1.07-2.18-8.71-.24-10.95-1.74-.88-.59-1.59-2-1.4-3.68,.37-3.24,3.34-5.81,6.87-6.1,3.96-.32,7.63,.24,11.75,0"/><path id="path90" class="cls-1" d="M483.5,240.54c-7.01,.16-12.26-2.85-12.76-9.2-.1-1.28,0-2.48-.1-3.58-.34-3.51-1.1-6.27-2.29-9.01-4.57-10.5-13.59-16.28-28.09-17.43h-45.02c-.09,.79-.44,1.32-.5,2.13h29.08c3.18,0,6.7-.43,9.36,.29,1.72,.47,3.82,2.01,3.68,5.04-.07,1.55-.79,3.2-1.3,4.94-1.39,4.82-2.59,9.6-3.98,14.43-.91,3.14-1.55,6.49-3.49,8.81-1.75,2.11-4.93,4.17-8.77,3.1-1.39-.39-2.27-.88-2.89-1.84-1.5-2.32-.12-5.88,.6-8.43,.39-1.4,.82-2.69,1.19-3.97,.36-1.23,.97-2.7,1-4.16,.05-2.25-1.38-3.4-2.79-3.87-1.67-.55-4.08-.29-6.28-.29-6.41,0-13.33-.08-19.52,.1-.13,.68-.39,1.24-.5,1.94,5.58,0,14.54-.7,14.54,3.87,.01,1.07-.37,2.26-.7,3.39-.59,2.06-1.21,4.11-1.79,6.2-.29,1.06-.49,2.16-.9,3.1-1.06,2.49-2.18,4.45-6.28,4.45h-10.9l-.26,1.02h99.26c.15-.45,.24-.67,.37-1.02"/></svg>